<svg width="20" height="21" viewBox="0 0 20 21" fill="none" xmlns="http://www.w3.org/2000/svg">
<path d="M15.8203 3.09998H15V1.42029H13.3203V3.09998H6.67969V1.42029H5V3.09998H4.17969C3.71094 3.09998 3.3138 3.26274 2.98828 3.58826C2.66276 3.91378 2.5 4.31091 2.5 4.77966V16.4203C2.5 16.889 2.66276 17.2862 2.98828 17.6117C3.3138 17.9372 3.71094 18.1 4.17969 18.1H15.8203C16.2891 18.1 16.6862 17.9372 17.0117 17.6117C17.3372 17.2862 17.5 16.889 17.5 16.4203V4.77966C17.5 4.31091 17.3372 3.91378 17.0117 3.58826C16.6862 3.26274 16.2891 3.09998 15.8203 3.09998ZM15.8203 16.4203H4.17969V8.09998H15.8203V16.4203ZM15.8203 6.42029H4.17969V4.77966H15.8203V6.42029Z" fill="white"/>
</svg>
