<svg width="20" height="21" viewBox="0 0 20 21" fill="none" xmlns="http://www.w3.org/2000/svg">
<path d="M10 16.7698C11.1979 16.7698 12.3112 16.4703 13.3398 15.8713C14.3685 15.2724 15.1823 14.4586 15.7812 13.4299C16.3802 12.4013 16.6797 11.288 16.6797 10.0901C16.6797 8.89217 16.3802 7.77889 15.7812 6.75024C15.1823 5.7216 14.3685 4.9078 13.3398 4.30884C12.3112 3.70988 11.1979 3.4104 10 3.4104C8.80208 3.4104 7.6888 3.70988 6.66016 4.30884C5.63151 4.9078 4.81771 5.7216 4.21875 6.75024C3.61979 7.77889 3.32031 8.89217 3.32031 10.0901C3.32031 11.288 3.61979 12.4013 4.21875 13.4299C4.81771 14.4586 5.63151 15.2724 6.66016 15.8713C7.6888 16.4703 8.80208 16.7698 10 16.7698ZM10 1.76978C11.0938 1.76978 12.1549 1.97811 13.1836 2.39478C14.2122 2.81144 15.1172 3.4104 15.8984 4.19165C16.6797 4.9729 17.2786 5.87785 17.6953 6.90649C18.112 7.93514 18.3203 8.99634 18.3203 10.0901C18.3203 11.1838 18.112 12.245 17.6953 13.2737C17.2786 14.3023 16.6797 15.2073 15.8984 15.9885C15.1172 16.7698 14.2122 17.3687 13.1836 17.7854C12.1549 18.2021 11.0938 18.4104 10 18.4104C8.48958 18.4104 7.09635 18.0393 5.82031 17.2971C4.54427 16.5549 3.53516 15.5458 2.79297 14.2698C2.05078 12.9937 1.67969 11.6005 1.67969 10.0901C1.67969 8.99634 1.88802 7.93514 2.30469 6.90649C2.72135 5.87785 3.32031 4.9729 4.10156 4.19165C4.88281 3.4104 5.78776 2.81144 6.81641 2.39478C7.84505 1.97811 8.90625 1.76978 10 1.76978ZM10.4297 5.9104V10.2854L14.1797 12.512L13.5547 13.5667L9.17969 10.9104V5.9104H10.4297Z" fill="white"/>
</svg>
