<svg width="20" height="21" viewBox="0 0 20 21" fill="none" xmlns="http://www.w3.org/2000/svg">
<path d="M10.8984 9.27185C11.4193 8.54268 11.6797 7.73539 11.6797 6.84998C11.6797 5.96456 11.4193 5.15727 10.8984 4.4281C11.3672 4.08956 11.901 3.92029 12.5 3.92029C13.3073 3.92029 13.9974 4.20675 14.5703 4.77966C15.1432 5.35258 15.4297 6.04268 15.4297 6.84998C15.4297 7.65727 15.1432 8.34737 14.5703 8.92029C13.9974 9.4932 13.3073 9.77966 12.5 9.77966C11.901 9.77966 11.3672 9.61039 10.8984 9.27185ZM4.57031 6.84998C4.57031 6.25102 4.73958 5.71065 5.07812 5.22888C5.41667 4.74711 5.85286 4.38904 6.38672 4.15466C6.92057 3.92029 7.48047 3.86169 8.06641 3.97888C8.65234 4.09607 9.15365 4.363 9.57031 4.77966C9.98698 5.19633 10.2539 5.69763 10.3711 6.28357C10.4883 6.86951 10.4297 7.4294 10.1953 7.96326C9.96094 8.49711 9.60286 8.93331 9.12109 9.27185C8.63932 9.61039 8.09896 9.77966 7.5 9.77966C6.69271 9.77966 6.0026 9.4932 5.42969 8.92029C4.85677 8.34737 4.57031 7.65727 4.57031 6.84998ZM6.25 6.84998C6.25 7.18852 6.3737 7.48149 6.62109 7.72888C6.86849 7.97628 7.16146 8.09998 7.5 8.09998C7.83854 8.09998 8.13151 7.97628 8.37891 7.72888C8.6263 7.48149 8.75 7.18852 8.75 6.84998C8.75 6.51143 8.6263 6.21847 8.37891 5.97107C8.13151 5.72367 7.83854 5.59998 7.5 5.59998C7.16146 5.59998 6.86849 5.72367 6.62109 5.97107C6.3737 6.21847 6.25 6.51143 6.25 6.84998ZM13.3203 14.7797V16.4203H1.67969V14.7797L1.71875 14.4281C1.77083 14.1416 1.875 13.8682 2.03125 13.6078C2.26562 13.2172 2.5651 12.8786 2.92969 12.5922C3.39844 12.2536 3.97135 11.9802 4.64844 11.7719C5.45573 11.5375 6.40625 11.4203 7.5 11.4203C9.21875 11.4203 10.5859 11.7067 11.6016 12.2797C12.3307 12.6963 12.8385 13.2432 13.125 13.9203C13.2552 14.2328 13.3203 14.5192 13.3203 14.7797ZM11.6797 14.7797C11.6016 14.363 11.276 13.9984 10.7031 13.6859C9.94792 13.2953 8.88021 13.1 7.5 13.1C6.5625 13.1 5.75521 13.2041 5.07812 13.4125C4.50521 13.5687 4.0625 13.7901 3.75 14.0765C3.48958 14.3109 3.34635 14.5453 3.32031 14.7797H11.6797ZM13.2812 11.4203C13.8021 11.837 14.2122 12.3383 14.5117 12.9242C14.8112 13.5101 14.974 14.1286 15 14.7797V16.4203H18.3203V14.7797L18.2812 14.4672C18.2292 14.2067 18.138 13.9463 18.0078 13.6859C17.8255 13.3213 17.5651 13.0088 17.2266 12.7484C16.8359 12.3838 16.3411 12.0974 15.7422 11.889C15.0391 11.6547 14.2188 11.4984 13.2812 11.4203Z" fill="white"/>
</svg>
