<svg width="17" height="18" viewBox="0 0 17 18" fill="none" xmlns="http://www.w3.org/2000/svg">
<g clip-path="url(#clip0_1_992)">
<g clip-path="url(#clip1_1_992)">
<path d="M8.4936 1.5625C4.5836 1.5625 1.41735 4.73584 1.41735 8.64584C1.41735 12.5559 4.5836 15.7291 8.4936 15.7291C12.4107 15.7291 15.584 12.5559 15.584 8.64584C15.584 4.73584 12.4107 1.5625 8.4936 1.5625ZM8.50069 14.3125C5.36985 14.3125 2.83403 11.7766 2.83403 8.64584C2.83403 5.515 5.36985 2.97916 8.50069 2.97916C11.6315 2.97916 14.1674 5.515 14.1674 8.64584C14.1674 11.7766 11.6315 14.3125 8.50069 14.3125Z" fill="#424242"/>
<path d="M6.78191 5.90268L7.62872 11.9947H6.69607L5.88988 5.90265L6.78191 5.90268Z" fill="#424242"/>
<path d="M10.216 5.90268L9.36921 11.9947H10.3019L11.108 5.90265L10.216 5.90268Z" fill="#424242"/>
<path d="M8.09214 6.43387L7.24534 11.9946H8.17798L8.98416 6.43384L8.09214 6.43387Z" fill="#424242"/>
<path d="M9.0801 6.43387L9.92691 11.9946H8.99426L8.18808 6.43384L9.0801 6.43387Z" fill="#424242"/>
<path d="M11.6875 8.46875H5.3125V9.26562H11.6875V8.46875Z" fill="#424242"/>
</g>
</g>
<defs>
<clipPath id="clip0_1_992">
<rect width="17" height="17" fill="white" transform="translate(0 0.5)"/>
</clipPath>
<clipPath id="clip1_1_992">
<rect width="17" height="17" fill="white" transform="translate(0 0.5)"/>
</clipPath>
</defs>
</svg>
