<svg width="33" height="33" viewBox="0 0 33 33" fill="none" xmlns="http://www.w3.org/2000/svg">
<g clip-path="url(#clip0_1_1152)">
<g clip-path="url(#clip1_1_1152)">
<path d="M23.9876 12.3856C23.8033 11.733 23.2633 11.2185 22.5786 11.0428C21.3275 10.7166 16.3234 10.7166 16.3234 10.7166C16.3234 10.7166 11.3193 10.7166 10.0683 11.0303C9.39669 11.206 8.8436 11.733 8.65924 12.3856C8.33002 13.5777 8.33002 16.0499 8.33002 16.0499C8.33002 16.0499 8.33002 18.5346 8.65924 19.7142C8.8436 20.3668 9.38352 20.8813 10.0683 21.0569C11.3325 21.3832 16.3234 21.3832 16.3234 21.3832C16.3234 21.3832 21.3275 21.3832 22.5786 21.0695C23.2633 20.8938 23.8033 20.3793 23.9876 19.7268C24.3168 18.5346 24.3168 16.0624 24.3168 16.0624C24.3168 16.0624 24.33 13.5777 23.9876 12.3856Z" fill="#EE3124"/>
<path d="M14.73 18.3337L18.8913 16.0498L14.73 13.7659V18.3337Z" fill="white"/>
</g>
</g>
<defs>
<clipPath id="clip0_1_1152">
<rect width="32" height="32" fill="white" transform="translate(0.330017 0.0500488)"/>
</clipPath>
<clipPath id="clip1_1_1152">
<rect width="32" height="32" fill="white" transform="translate(0.330017 0.0500488)"/>
</clipPath>
</defs>
</svg>
