<svg width="44" height="45" viewBox="0 0 44 45" fill="none" xmlns="http://www.w3.org/2000/svg">
<g clip-path="url(#clip0_1_928)">
<g clip-path="url(#clip1_1_928)">
<g clip-path="url(#clip2_1_928)">
<path d="M40 0.699951H4C2.067 0.699951 0.5 2.26695 0.5 4.19995V40.2C0.5 42.1329 2.067 43.7 4 43.7H40C41.933 43.7 43.5 42.1329 43.5 40.2V4.19995C43.5 2.26695 41.933 0.699951 40 0.699951Z" stroke="white"/>
<path d="M17.9478 23.9617L26.4824 27.0485M26.4824 18.1507L17.9478 21.2379M30.9313 16.2424C30.9313 17.6448 29.7924 18.783 28.3891 18.783C26.9858 18.783 25.8469 17.6448 25.8469 16.2424C25.8469 14.84 26.9858 13.7019 28.3891 13.7019C29.7924 13.7019 30.9313 14.84 30.9313 16.2424ZM30.9313 28.9452C30.9313 30.3476 29.7924 31.4858 28.3891 31.4858C26.9858 31.4858 25.8469 30.3476 25.8469 28.9452C25.8469 27.5428 26.9858 26.4047 28.3891 26.4047C29.7924 26.4047 30.9313 27.5428 30.9313 28.9452ZM18.2202 22.5938C18.2202 23.9962 17.0813 25.1344 15.678 25.1344C14.2747 25.1344 13.1357 23.9962 13.1357 22.5938C13.1357 21.1914 14.2747 20.0533 15.678 20.0533C17.0813 20.0533 18.2202 21.1914 18.2202 22.5938Z" stroke="#FAFAFA" stroke-linecap="square"/>
</g>
</g>
</g>
<defs>
<clipPath id="clip0_1_928">
<rect width="44" height="44" fill="white" transform="translate(0 0.199951)"/>
</clipPath>
<clipPath id="clip1_1_928">
<rect width="44" height="44" fill="white" transform="translate(0 0.199951)"/>
</clipPath>
<clipPath id="clip2_1_928">
<rect width="44" height="44" fill="white" transform="translate(0 0.199951)"/>
</clipPath>
</defs>
</svg>
