<svg width="17" height="18" viewBox="0 0 17 18" fill="none" xmlns="http://www.w3.org/2000/svg">
<g clip-path="url(#clip0_1_983)">
<g clip-path="url(#clip1_1_983)">
<path d="M8.4936 1.91687C4.5836 1.91687 1.41735 5.0902 1.41735 9.0002C1.41735 12.9102 4.5836 16.0835 8.4936 16.0835C12.4107 16.0835 15.584 12.9102 15.584 9.0002C15.584 5.0902 12.4107 1.91687 8.4936 1.91687ZM8.50069 14.6669C5.36985 14.6669 2.83403 12.131 2.83403 9.0002C2.83403 5.86937 5.36985 3.33353 8.50069 3.33353C11.6315 3.33353 14.1674 5.86937 14.1674 9.0002C14.1674 12.131 11.6315 14.6669 8.50069 14.6669ZM8.85485 5.45853H7.79235V9.70853L11.5111 11.9398L12.0424 11.0685L8.85485 9.17728V5.45853Z" fill="#424242"/>
</g>
</g>
<defs>
<clipPath id="clip0_1_983">
<rect width="17" height="17" fill="white" transform="translate(0 0.5)"/>
</clipPath>
<clipPath id="clip1_1_983">
<rect width="17" height="17" fill="white" transform="translate(0 0.5)"/>
</clipPath>
</defs>
</svg>
