<svg width="20" height="20" viewBox="0 0 20 20" fill="none" xmlns="http://www.w3.org/2000/svg">
<g clip-path="url(#clip0_1_895)">
<g clip-path="url(#clip1_1_895)">
<path d="M10.335 17.92C14.5241 17.92 17.92 14.5241 17.92 10.335C17.92 6.14592 14.5241 2.75 10.335 2.75C6.14592 2.75 2.75 6.14592 2.75 10.335C2.75 14.5241 6.14592 17.92 10.335 17.92Z" stroke="white" stroke-width="1.5"/>
<path d="M8.00443 6.12235L9.15341 14.3883L7.88796 14.3882L6.79409 6.12231L8.00443 6.12235Z" fill="white"/>
<path d="M12.6655 6.12235L11.5165 14.3883L12.782 14.3882L13.8758 6.12231L12.6655 6.12235Z" fill="white"/>
<path d="M9.78055 6.84318L8.63157 14.3882H9.89702L10.9909 6.84314L9.78055 6.84318Z" fill="white"/>
<path d="M11.1218 6.84318L12.2708 14.3882H11.0053L9.91145 6.84314L11.1218 6.84318Z" fill="white"/>
<path d="M14.6597 9.604H6.00977V10.6852H14.6597V9.604Z" fill="white"/>
</g>
</g>
<defs>
<clipPath id="clip0_1_895">
<rect width="20" height="20" fill="white"/>
</clipPath>
<clipPath id="clip1_1_895">
<rect width="20" height="20" fill="white"/>
</clipPath>
</defs>
</svg>
