<svg width="17" height="18" viewBox="0 0 17 18" fill="none" xmlns="http://www.w3.org/2000/svg">
<g clip-path="url(#clip0_1_964)">
<g clip-path="url(#clip1_1_964)">
<path d="M1.41632 12.5418H2.83299V12.8959H2.12465V13.6043H2.83299V13.9584H1.41632V14.6668H3.54132V11.8334H1.41632V12.5418ZM2.12465 6.16676H2.83299V3.33344H1.41632V4.04176H2.12465V6.16676ZM1.41632 8.29176H2.69132L1.41632 9.77926V10.4168H3.54132V9.70844H2.26632L3.54132 8.22093V7.58344H1.41632V8.29176ZM4.95799 4.04176V5.45844H14.8747V4.04176H4.95799ZM4.95799 13.9584H14.8747V12.5418H4.95799V13.9584ZM4.95799 9.70844H14.8747V8.29176H4.95799V9.70844Z" fill="#3C7CDE"/>
</g>
</g>
<defs>
<clipPath id="clip0_1_964">
<rect width="17" height="17" fill="white" transform="translate(0 0.5)"/>
</clipPath>
<clipPath id="clip1_1_964">
<rect width="17" height="17" fill="white" transform="translate(0 0.5)"/>
</clipPath>
</defs>
</svg>
