<svg width="128" height="40" viewBox="0 0 128 40" fill="none" xmlns="http://www.w3.org/2000/svg">
<g clip-path="url(#clip0_1_89)">
<g clip-path="url(#clip1_1_89)">
<path d="M48.4455 11.3213H44.9404L37.2369 28.5715H41.1629L46.7672 16.0287L52.0249 28.5715H56.149L48.4455 11.3213Z" fill="#3C7CDE"/>
<path d="M65.3493 28.989C64.0149 28.989 62.7823 28.7418 61.6213 28.3491C60.485 27.8822 59.4726 27.2643 58.6334 26.4266C57.7943 25.5889 57.1285 24.6771 56.6828 23.617C56.2151 22.5322 55.9675 21.3238 55.9675 19.9698C55.9675 18.6872 56.2151 17.5063 56.6828 16.4214C57.1285 15.3366 57.8191 14.3506 58.6582 13.5377C59.4973 12.7247 60.5098 12.1096 61.6461 11.6646C62.8071 11.2197 64.0397 11 65.374 11C66.7084 11 68.0895 11.2472 69.3001 11.7388C70.4859 12.2551 71.2507 12.7742 72.0899 13.7107L69.3496 16.3225C68.7581 15.7321 68.2876 15.3613 67.6218 15.0894C66.9312 14.7928 66.2159 14.6225 65.3988 14.6225C64.5817 14.6225 63.8938 14.7708 63.2005 15.0427C62.5595 15.2899 61.99 15.6579 61.4975 16.1276C61.005 16.6192 60.6584 17.2124 60.3365 17.877C60.0888 18.4922 59.965 19.2337 59.965 19.9725C59.965 20.7608 60.0888 21.4995 60.3365 22.1669C60.6584 22.7821 61.0023 23.3506 61.4975 23.8422C61.99 24.3091 62.5595 24.6799 63.2005 24.9518C63.8911 25.2237 64.6064 25.3225 65.3988 25.3225C66.1911 25.3225 66.9285 25.199 67.6218 24.8776C68.2876 24.581 68.9809 24.0647 69.5724 23.4248L72.1889 26.1355C71.3498 27.1214 70.4859 27.7366 69.3001 28.2557C68.0895 28.7226 66.7579 28.9945 65.3493 28.9945V28.989Z" fill="#3C7CDE"/>
<path d="M82.4952 29C81.1663 29 79.942 28.7775 78.7369 28.3381C77.5814 27.874 76.5497 27.2588 75.7161 26.4486C74.8824 25.6384 74.2194 24.6579 73.7517 23.5786C73.2867 22.4745 73.0391 21.2716 73.0391 20C73.0391 18.7284 73.2867 17.5008 73.7517 16.4214C74.2166 15.3421 74.8824 14.3863 75.7161 13.5761C76.5497 12.7687 77.5842 12.1562 78.7122 11.7113C79.9172 11.2472 81.1663 11.0247 82.4952 11.0247C83.824 11.0247 85.0979 11.2472 86.2534 11.7113C87.4089 12.1288 88.4159 12.7659 89.2495 13.5514C90.0611 14.3616 90.7214 15.3174 91.1892 16.4214C91.6789 17.5008 91.9017 18.7037 91.9017 20C91.9017 21.2963 91.6789 22.4992 91.1892 23.6033C90.7242 24.6826 90.0584 25.6631 89.2495 26.4733C88.4159 27.2835 87.4062 27.8932 86.2534 28.3381C85.0979 28.7803 83.846 29 82.4952 29ZM82.4952 25.5423C83.3068 25.5423 84.0414 25.394 84.6824 25.1495C85.3702 24.8804 85.937 24.5124 86.4515 23.996C86.966 23.4797 87.3099 22.9414 87.5823 22.2301C87.9014 21.5435 88.0252 20.8102 88.0252 19.9973C88.0252 19.1843 87.9014 18.4538 87.607 17.7644C87.3374 17.1025 86.9935 16.5121 86.4762 15.9985C85.937 15.5096 85.3702 15.1416 84.6824 14.8697C84.0441 14.6006 83.3068 14.4522 82.4952 14.4522C81.6835 14.4522 80.9737 14.6006 80.2584 14.8697C79.5953 15.1388 78.9791 15.5069 78.4893 16.0232C77.9996 16.5121 77.6309 17.1273 77.3338 17.7891C77.0147 18.451 76.8908 19.1843 76.8908 19.9973C76.8908 20.8102 77.0147 21.516 77.3338 22.2054C77.6282 22.9167 77.9969 23.4825 78.4893 23.996C78.9818 24.5096 79.5953 24.8776 80.2584 25.1495C80.971 25.3967 81.7056 25.5423 82.4952 25.5423Z" fill="#3C7CDE"/>
<path d="M106.549 11.3186V22.5816L97.6628 11.3186H94.3283L94.3035 28.5743H98.059V17.358L106.948 28.5743H110.283V11.3186H106.549Z" fill="#3C7CDE"/>
<path d="M21.0567 28.5496L21.0511 13.09L22.3718 14.6802H18V11.3213H24.7323V28.5468H21.0567V28.5496Z" fill="#3C7CDE"/>
<path d="M28.3392 28.5715H21.0566V11.3213H28.3392C34.2406 11.3213 37.3 14.032 37.3 19.4782C37.3 25.5148 34.2379 28.5715 28.3392 28.5715ZM24.735 14.6719V25.2209H28.3144C31.6462 25.2209 33.6216 23.5209 33.6216 19.4534C33.6216 15.8309 31.6462 14.6719 28.3144 14.6719H24.735Z" fill="#3C7CDE"/>
</g>
</g>
<defs>
<clipPath id="clip0_1_89">
<rect width="128" height="40" fill="white"/>
</clipPath>
<clipPath id="clip1_1_89">
<rect width="128" height="40" fill="white"/>
</clipPath>
</defs>
</svg>
